<svg width="16px" height="16px" viewBox="4042 209 16 16" version="1.1" xmlns="http://www.w3.org/2000/svg" xmlns:xlink="http://www.w3.org/1999/xlink">
    <path d="M4051,218 L4051,223.999128 C4051,224.555369 4050.55228,225 4050,225 C4049.44386,225 4049,224.551894 4049,223.999128 L4049,218 L4043.00087,218 C4042.44463,218 4042,217.552285 4042,217 C4042,216.443865 4042.44811,216 4043.00087,216 L4049,216 L4049,210.000872 C4049,209.444631 4049.44772,209 4050,209 C4050.55614,209 4051,209.448106 4051,210.000872 L4051,216 L4056.99913,216 C4057.55537,216 4058,216.447715 4058,217 C4058,217.556135 4057.55189,218 4056.99913,218 L4051,218 Z" id="plus" stroke="none" fill="#E44E00" fill-rule="evenodd"></path>
</svg>
